<svg xmlns="http://www.w3.org/2000/svg" width="11.157" height="11.157" viewBox="0 0 11.157 11.157"><g fill="#0057ff"><path d="M 5.578369140625 10.65673923492432 C 2.778149127960205 10.65673923492432 0.4999991357326508 8.378588676452637 0.4999991357326508 5.578369140625 C 0.4999991357326508 2.778149127960205 2.778149127960205 0.4999991357326508 5.578369140625 0.4999991357326508 C 8.378588676452637 0.4999991357326508 10.65673923492432 2.778149127960205 10.65673923492432 5.578369140625 C 10.65673923492432 8.378588676452637 8.378588676452637 10.65673923492432 5.578369140625 10.65673923492432 Z" stroke="none"/><path d="M 5.578369140625 0.9999990463256836 C 3.053849220275879 0.9999990463256836 0.9999990463256836 3.053849220275879 0.9999990463256836 5.578369140625 C 0.9999990463256836 8.102889060974121 3.053849220275879 10.15673923492432 5.578369140625 10.15673923492432 C 8.102889060974121 10.15673923492432 10.15673923492432 8.102889060974121 10.15673923492432 5.578369140625 C 10.15673923492432 3.053849220275879 8.102889060974121 0.9999990463256836 5.578369140625 0.9999990463256836 M 5.578369140625 -9.5367431640625e-07 C 8.659218788146973 -9.5367431640625e-07 11.15673923492432 2.497519493103027 11.15673923492432 5.578369140625 C 11.15673923492432 8.659218788146973 8.659218788146973 11.15673923492432 5.578369140625 11.15673923492432 C 2.497519493103027 11.15673923492432 -9.5367431640625e-07 8.659218788146973 -9.5367431640625e-07 5.578369140625 C -9.5367431640625e-07 2.497519493103027 2.497519493103027 -9.5367431640625e-07 5.578369140625 -9.5367431640625e-07 Z" stroke="none" fill="#0057ff"/></g></svg>