<svg xmlns="http://www.w3.org/2000/svg" width="12" height="16.579" viewBox="0 0 12 16.579"><g transform="translate(-32 -53)"><g transform="translate(32 53)" fill="#fff"><path d="M 6 13.31180477142334 C 5.578565120697021 12.74174404144287 5.108981132507324 12.08505439758301 4.642370223999023 11.39018630981445 C 2.127389907836914 7.644936561584473 2 6.243006706237793 2 5.999996662139893 C 2 3.794386625289917 3.794389963150024 1.999996662139893 6 1.999996662139893 C 8.205610275268555 1.999996662139893 10 3.794386625289917 10 5.999996662139893 C 10 6.243006706237793 9.872610092163086 7.644936561584473 7.357629776000977 11.39018630981445 C 6.891018867492676 12.08505439758301 6.421434879302979 12.74174404144287 6 13.31180477142334 Z" stroke="none"/><path d="M 6 3.999996185302734 C 4.918066024780273 3.999996185302734 4.034024715423584 4.863613128662109 4.00095796585083 5.937671661376953 C 4.038401126861572 6.12286376953125 4.318656921386719 7.238781929016113 6 9.817827224731445 C 7.681343078613281 7.238781929016113 7.961598873138428 6.12286376953125 7.99904203414917 5.937671661376953 C 7.965975284576416 4.863613128662109 7.081933975219727 3.999996185302734 6 3.999996185302734 M 6 -3.814697265625e-06 C 9.31371021270752 -3.814697265625e-06 12 2.686286926269531 12 5.999996185302734 C 12 9.31370735168457 6 16.57861709594727 6 16.57861709594727 C 6 16.57861709594727 0 9.31370735168457 0 5.999996185302734 C 0 2.686286926269531 2.68628978729248 -3.814697265625e-06 6 -3.814697265625e-06 Z" stroke="none" fill="#0057ff"/></g><g transform="translate(35 56)" fill="#fff"><path d="M 3 5.5 C 1.621500015258789 5.5 0.5 4.378499984741211 0.5 3 C 0.5 1.621500015258789 1.621500015258789 0.5 3 0.5 C 4.378499984741211 0.5 5.5 1.621500015258789 5.5 3 C 5.5 4.378499984741211 4.378499984741211 5.5 3 5.5 Z" stroke="none"/><path d="M 3 1 C 1.897200107574463 1 1 1.897200107574463 1 3 C 1 4.102799892425537 1.897200107574463 5 3 5 C 4.102799892425537 5 5 4.102799892425537 5 3 C 5 1.897200107574463 4.102799892425537 1 3 1 M 3 0 C 4.65684986114502 0 6 1.34315013885498 6 3 C 6 4.65684986114502 4.65684986114502 6 3 6 C 1.34315013885498 6 0 4.65684986114502 0 3 C 0 1.34315013885498 1.34315013885498 0 3 0 Z" stroke="none" fill="#0057ff"/></g><g transform="translate(37 61)" fill="#fff" stroke="#0057ff" stroke-width="1"><rect width="2" height="2" stroke="none"/><rect x="0.5" y="0.5" width="1" height="1" fill="none"/></g></g></svg>